<mxfile host="app.diagrams.net" modified="2024-02-25T11:56:31.991Z" agent="Mozilla/5.0 (Windows NT 10.0; Win64; x64; rv:123.0) Gecko/20100101 Firefox/123.0" version="23.1.6" etag="PQ7LVh9TyaAxqAc22cDE" type="github">
  <diagram name="Seite-1" id="MtIQSyrTKS7-0Pv-_WRd">
    <mxGraphModel>
      <root>
        <mxCell id="0" />
        <mxCell id="1" parent="0" />
      </root>
    </mxGraphModel>
  </diagram>
</mxfile>
